<svg width="17" height="17" viewBox="0 0 17 17" fill="none" xmlns="http://www.w3.org/2000/svg">
<g id="menu-5 1" clip-path="url(#clip0_6_373)">
<g id="Group">
<path id="Vector" d="M8.5 10.5068C9.60457 10.5068 10.5 9.61141 10.5 8.50684C10.5 7.40227 9.60457 6.50684 8.5 6.50684C7.39543 6.50684 6.5 7.40227 6.5 8.50684C6.5 9.61141 7.39543 10.5068 8.5 10.5068Z" fill="#6A7183"/>
<path id="Vector_2" d="M2.5 10.5068C3.60457 10.5068 4.5 9.61141 4.5 8.50684C4.5 7.40227 3.60457 6.50684 2.5 6.50684C1.39543 6.50684 0.5 7.40227 0.5 8.50684C0.5 9.61141 1.39543 10.5068 2.5 10.5068Z" fill="#6A7183"/>
<path id="Vector_3" d="M14.5 10.5068C15.6046 10.5068 16.5 9.61141 16.5 8.50684C16.5 7.40227 15.6046 6.50684 14.5 6.50684C13.3954 6.50684 12.5 7.40227 12.5 8.50684C12.5 9.61141 13.3954 10.5068 14.5 10.5068Z" fill="#6A7183"/>
</g>
</g>
<defs>
<clipPath id="clip0_6_373">
<rect width="16" height="16" fill="white" transform="translate(0.5 0.506836)"/>
</clipPath>
</defs>
</svg>
