<svg width="25" height="25" viewBox="0 0 25 25" fill="none" xmlns="http://www.w3.org/2000/svg">
<g id="toggle 1" clip-path="url(#clip0_6_479)">
<g id="Group">
<path id="Vector" d="M8.5 15.5C10.1569 15.5 11.5 14.1569 11.5 12.5C11.5 10.8431 10.1569 9.5 8.5 9.5C6.84315 9.5 5.5 10.8431 5.5 12.5C5.5 14.1569 6.84315 15.5 8.5 15.5Z" stroke="#16202A" stroke-width="2" stroke-miterlimit="10" stroke-linecap="round" stroke-linejoin="round"/>
<path id="Vector_2" d="M8.5 5.5H16.5C18.3565 5.5 20.137 6.2375 21.4497 7.55025C22.7625 8.86301 23.5 10.6435 23.5 12.5C23.5 14.3565 22.7625 16.137 21.4497 17.4497C20.137 18.7625 18.3565 19.5 16.5 19.5H8.5C6.64348 19.5 4.86301 18.7625 3.55025 17.4497C2.2375 16.137 1.5 14.3565 1.5 12.5V12.5C1.5 10.6435 2.2375 8.86301 3.55025 7.55025C4.86301 6.2375 6.64348 5.5 8.5 5.5V5.5Z" stroke="#16202A" stroke-width="2" stroke-miterlimit="10" stroke-linecap="round" stroke-linejoin="round"/>
</g>
</g>
<defs>
<clipPath id="clip0_6_479">
<rect width="24" height="24" fill="white" transform="translate(0.5 0.5)"/>
</clipPath>
</defs>
</svg>
