<svg width="56" height="56" viewBox="0 0 56 56" fill="none" xmlns="http://www.w3.org/2000/svg">
<g id="bell-03">
<path id="Icon" d="M34.9993 44.3334C34.9993 48.1994 31.8653 51.3334 27.9993 51.3334C24.1334 51.3334 20.9993 48.1994 20.9993 44.3334M32.1912 14.5567C33.2073 13.5069 33.8327 12.0765 33.8327 10.5001C33.8327 7.27842 31.221 4.66675 27.9993 4.66675C24.7777 4.66675 22.166 7.27842 22.166 10.5001C22.166 12.0765 22.7914 13.5069 23.8075 14.5567M41.9993 26.1334C41.9993 22.9155 40.5244 19.8293 37.8988 17.5539C35.2733 15.2784 31.7124 14.0001 27.9993 14.0001C24.2863 14.0001 20.7254 15.2784 18.0999 17.5539C15.4743 19.8293 13.9993 22.9155 13.9993 26.1334C13.9993 31.4576 12.679 35.3514 11.0315 38.1377C9.1538 41.3132 8.21496 42.901 8.25203 43.2802C8.29445 43.7142 8.37255 43.8511 8.72448 44.1085C9.03208 44.3334 10.5775 44.3334 13.6685 44.3334H42.3302C45.4212 44.3334 46.9666 44.3334 47.2742 44.1085C47.6261 43.8511 47.7042 43.7142 47.7467 43.2802C47.7837 42.901 46.8449 41.3132 44.9672 38.1377C43.3197 35.3514 41.9993 31.4576 41.9993 26.1334Z" stroke="url(#paint0_linear_6_6286)" stroke-linecap="round" stroke-linejoin="round"/>
</g>
<defs>
<linearGradient id="paint0_linear_6_6286" x1="27.9993" y1="4.66675" x2="27.9993" y2="51.3334" gradientUnits="userSpaceOnUse">
<stop stop-color="white"/>
<stop offset="1" stop-color="white" stop-opacity="0.6"/>
</linearGradient>
</defs>
</svg>
