<svg width="56" height="56" viewBox="0 0 56 56" fill="none" xmlns="http://www.w3.org/2000/svg">
<g id="mail-02">
<path id="Icon" d="M50.1664 41.9999L34.6665 27.9999M21.3332 27.9999L5.83325 41.9999M4.6665 16.3333L23.718 29.6693C25.2607 30.7492 26.0321 31.2892 26.8711 31.4983C27.6123 31.683 28.3874 31.683 29.1286 31.4983C29.9676 31.2892 30.739 30.7492 32.2817 29.6693L51.3332 16.3333M15.8665 46.6666H40.1332C44.0535 46.6666 46.0137 46.6666 47.5111 45.9036C48.8282 45.2325 49.8991 44.1617 50.5702 42.8445C51.3332 41.3471 51.3332 39.387 51.3332 35.4666V20.5333C51.3332 16.6129 51.3332 14.6527 50.5702 13.1553C49.8991 11.8382 48.8282 10.7673 47.5111 10.0962C46.0137 9.33325 44.0535 9.33325 40.1332 9.33325H15.8665C11.9461 9.33325 9.98595 9.33325 8.48857 10.0962C7.17144 10.7673 6.10057 11.8382 5.42946 13.1553C4.6665 14.6527 4.6665 16.6129 4.6665 20.5333V35.4666C4.6665 39.387 4.6665 41.3471 5.42946 42.8445C6.10057 44.1617 7.17144 45.2325 8.48857 45.9036C9.98595 46.6666 11.9461 46.6666 15.8665 46.6666Z" stroke="url(#paint0_linear_6_6270)" stroke-linecap="round" stroke-linejoin="round"/>
</g>
<defs>
<linearGradient id="paint0_linear_6_6270" x1="27.9998" y1="9.33325" x2="27.9998" y2="46.6666" gradientUnits="userSpaceOnUse">
<stop stop-color="white"/>
<stop offset="1" stop-color="white" stop-opacity="0.6"/>
</linearGradient>
</defs>
</svg>
