<svg width="56" height="56" viewBox="0 0 56 56" fill="none" xmlns="http://www.w3.org/2000/svg">
<g id="package">
<path id="Icon" d="M47.8333 16.9815L27.9999 28M27.9999 28L8.16659 16.9815M27.9999 28L28 50.1668M49 37.4701V18.5302C49 17.7307 49 17.3309 48.8822 16.9744C48.778 16.659 48.6076 16.3694 48.3825 16.1252C48.1281 15.849 47.7786 15.6549 47.0797 15.2666L29.8131 5.67404C29.1513 5.30641 28.8205 5.12259 28.4701 5.05052C28.1599 4.98674 27.8401 4.98674 27.53 5.05052C27.1796 5.12259 26.8487 5.30641 26.1869 5.67404L8.92027 15.2666C8.22138 15.6549 7.87193 15.849 7.61748 16.1252C7.39237 16.3694 7.22201 16.659 7.1178 16.9744C7 17.3309 7 17.7307 7 18.5302V37.4701C7 38.2696 7 38.6693 7.1178 39.0259C7.22201 39.3413 7.39237 39.6308 7.61748 39.8751C7.87193 40.1512 8.22138 40.3453 8.92027 40.7336L26.1869 50.3262C26.8487 50.6938 27.1796 50.8776 27.53 50.9497C27.8401 51.0135 28.1599 51.0135 28.4701 50.9497C28.8205 50.8776 29.1513 50.6938 29.8131 50.3262L47.0797 40.7336C47.7786 40.3453 48.1281 40.1512 48.3825 39.8751C48.6076 39.6308 48.778 39.3413 48.8822 39.0259C49 38.6693 49 38.2696 49 37.4701Z" stroke="url(#paint0_linear_6_6291)" stroke-linecap="round" stroke-linejoin="round"/>
<path id="Icon_2" d="M38.5 22.1667L17.5 10.5" stroke="url(#paint1_linear_6_6291)" stroke-linecap="round" stroke-linejoin="round"/>
</g>
<defs>
<linearGradient id="paint0_linear_6_6291" x1="28" y1="5.00269" x2="28" y2="50.9975" gradientUnits="userSpaceOnUse">
<stop stop-color="white"/>
<stop offset="1" stop-color="white" stop-opacity="0.6"/>
</linearGradient>
<linearGradient id="paint1_linear_6_6291" x1="28" y1="10.5" x2="28" y2="22.1667" gradientUnits="userSpaceOnUse">
<stop stop-color="white"/>
<stop offset="1" stop-color="white" stop-opacity="0.6"/>
</linearGradient>
</defs>
</svg>
