<svg width="56" height="56" viewBox="0 0 56 56" fill="none" xmlns="http://www.w3.org/2000/svg">
<g id="presentation-chart-02">
<path id="Icon" d="M28.0001 37.3333V49M42.0001 49L32.7801 41.3167C31.0796 39.8996 30.2294 39.1911 29.2803 38.9203C28.4435 38.6816 27.5567 38.6816 26.7199 38.9203C25.7708 39.1911 24.9205 39.8996 23.22 41.3167L14.0001 49M18.6667 25.6667V28M28.0001 21V28M37.3334 16.3333V28M51.3334 7H4.66675M7.00008 7H49.0001V26.1333C49.0001 30.0537 49.0001 32.0139 48.2371 33.5113C47.566 34.8284 46.4951 35.8993 45.178 36.5704C43.6806 37.3333 41.7204 37.3333 37.8001 37.3333H18.2001C14.2797 37.3333 12.3195 37.3333 10.8221 36.5704C9.50501 35.8993 8.43415 34.8284 7.76304 33.5113C7.00008 32.0139 7.00008 30.0537 7.00008 26.1333V7Z" stroke="url(#paint0_linear_6_6275)" stroke-linecap="round" stroke-linejoin="round"/>
</g>
<defs>
<linearGradient id="paint0_linear_6_6275" x1="28.0001" y1="7" x2="28.0001" y2="49" gradientUnits="userSpaceOnUse">
<stop stop-color="white"/>
<stop offset="1" stop-color="white" stop-opacity="0.6"/>
</linearGradient>
</defs>
</svg>
