<svg width="24" height="24" viewBox="0 0 24 24" fill="none" xmlns="http://www.w3.org/2000/svg">
<g id="icon">
<path id="Vector" d="M11.4244 4.76752C11.5927 4.19208 12.4079 4.19208 12.5762 4.76752L13.5373 8.05391C13.5947 8.25034 13.7483 8.40394 13.9447 8.46138L17.2311 9.42247C17.8066 9.59076 17.8066 10.4059 17.2311 10.5742L13.9447 11.5353C13.7483 11.5928 13.5947 11.7464 13.5373 11.9428L12.5762 15.2292C12.4079 15.8046 11.5927 15.8046 11.4244 15.2292L10.4633 11.9428C10.4059 11.7464 10.2523 11.5928 10.0559 11.5353L6.76948 10.5742C6.19403 10.4059 6.19403 9.59076 6.76948 9.42247L10.0559 8.46138C10.2523 8.40394 10.4059 8.25034 10.4633 8.05391L11.4244 4.76752Z" fill="#F9FB6C"/>
<path id="Vector_2" d="M11.4244 4.76752C11.5927 4.19208 12.4079 4.19208 12.5762 4.76752L13.5373 8.05391C13.5947 8.25034 13.7483 8.40394 13.9447 8.46138L17.2311 9.42247C17.8066 9.59076 17.8066 10.4059 17.2311 10.5742L13.9447 11.5353C13.7483 11.5928 13.5947 11.7464 13.5373 11.9428L12.5762 15.2292C12.4079 15.8046 11.5927 15.8046 11.4244 15.2292L10.4633 11.9428C10.4059 11.7464 10.2523 11.5928 10.0559 11.5353L6.76948 10.5742C6.19403 10.4059 6.19403 9.59076 6.76948 9.42247L10.0559 8.46138C10.2523 8.40394 10.4059 8.25034 10.4633 8.05391L11.4244 4.76752Z" fill="#F9FB6C"/>
<path id="Vector_3" d="M17.7118 12.9853C17.796 12.6976 18.2036 12.6976 18.2877 12.9853L18.6325 14.1643C18.6612 14.2625 18.738 14.3393 18.8362 14.368L20.0152 14.7128C20.3029 14.7969 20.3029 15.2045 20.0152 15.2887L18.8362 15.6335C18.738 15.6622 18.6612 15.739 18.6325 15.8372L18.2877 17.0161C18.2036 17.3039 17.796 17.3039 17.7118 17.0161L17.367 15.8372C17.3383 15.739 17.2615 15.6622 17.1633 15.6335L15.9843 15.2887C15.6966 15.2045 15.6966 14.7969 15.9843 14.7128L17.1633 14.368C17.2615 14.3393 17.3383 14.2625 17.367 14.1643L17.7118 12.9853Z" fill="#F9FB6C"/>
<path id="Vector_4" d="M17.7118 12.9853C17.796 12.6976 18.2036 12.6976 18.2877 12.9853L18.6325 14.1643C18.6612 14.2625 18.738 14.3393 18.8362 14.368L20.0152 14.7128C20.3029 14.7969 20.3029 15.2045 20.0152 15.2887L18.8362 15.6335C18.738 15.6622 18.6612 15.739 18.6325 15.8372L18.2877 17.0161C18.2036 17.3039 17.796 17.3039 17.7118 17.0161L17.367 15.8372C17.3383 15.739 17.2615 15.6622 17.1633 15.6335L15.9843 15.2887C15.6966 15.2045 15.6966 14.7969 15.9843 14.7128L17.1633 14.368C17.2615 14.3393 17.3383 14.2625 17.367 14.1643L17.7118 12.9853Z" fill="#F9FB6C"/>
<path id="Vector_5" d="M6.71182 14.9853C6.79596 14.6976 7.20356 14.6976 7.2877 14.9853L7.40621 15.3906C7.43493 15.4888 7.51173 15.5656 7.60994 15.5943L8.01517 15.7128C8.3029 15.7969 8.3029 16.2045 8.01517 16.2887L7.60994 16.4072C7.51173 16.4359 7.43493 16.5127 7.40621 16.6109L7.2877 17.0161C7.20356 17.3039 6.79596 17.3039 6.71182 17.0161L6.59331 16.6109C6.56459 16.5127 6.48779 16.4359 6.38958 16.4072L5.98435 16.2887C5.69662 16.2045 5.69662 15.7969 5.98435 15.7128L6.38958 15.5943C6.48779 15.5656 6.56459 15.4888 6.59331 15.3906L6.71182 14.9853Z" fill="#F9FB6C"/>
<path id="Vector_6" d="M6.71182 14.9853C6.79596 14.6976 7.20356 14.6976 7.2877 14.9853L7.40621 15.3906C7.43493 15.4888 7.51173 15.5656 7.60994 15.5943L8.01517 15.7128C8.3029 15.7969 8.3029 16.2045 8.01517 16.2887L7.60994 16.4072C7.51173 16.4359 7.43493 16.5127 7.40621 16.6109L7.2877 17.0161C7.20356 17.3039 6.79596 17.3039 6.71182 17.0161L6.59331 16.6109C6.56459 16.5127 6.48779 16.4359 6.38958 16.4072L5.98435 16.2887C5.69662 16.2045 5.69662 15.7969 5.98435 15.7128L6.38958 15.5943C6.48779 15.5656 6.56459 15.4888 6.59331 15.3906L6.71182 14.9853Z" fill="#F9FB6C"/>
</g>
</svg>
