<svg width="40" height="40" viewBox="0 0 40 40" fill="none" xmlns="http://www.w3.org/2000/svg">
<g id="bank">
<path id="Icon" d="M8.33333 14.9984V28.3317M15.8333 14.9984V28.3317M24.1667 14.9984V28.3317M31.6667 14.9984V28.3317M5 30.9984L5 32.3317C5 33.2652 5 33.7319 5.18166 34.0884C5.34144 34.402 5.59641 34.657 5.91002 34.8167C6.26654 34.9984 6.73325 34.9984 7.66667 34.9984H32.3333C33.2668 34.9984 33.7335 34.9984 34.09 34.8168C34.4036 34.657 34.6586 34.402 34.8183 34.0884C35 33.7319 35 33.2652 35 32.3317V30.9984C35 30.065 35 29.5983 34.8183 29.2418C34.6586 28.9282 34.4036 28.6732 34.09 28.5134C33.7335 28.3317 33.2668 28.3317 32.3333 28.3317H7.66667C6.73325 28.3317 6.26654 28.3317 5.91002 28.5134C5.59641 28.6732 5.34144 28.9282 5.18166 29.2418C5 29.5983 5 30.065 5 30.9984ZM19.4215 5.12696L7.08819 7.8677C6.34308 8.03328 5.97053 8.11606 5.69244 8.31641C5.44715 8.49313 5.25455 8.73323 5.13525 9.01102C5 9.32595 5 9.70759 5 10.4709L5 12.3317C5 13.2652 5 13.7319 5.18166 14.0884C5.34144 14.402 5.59641 14.657 5.91002 14.8167C6.26654 14.9984 6.73325 14.9984 7.66667 14.9984H32.3333C33.2668 14.9984 33.7335 14.9984 34.09 14.8167C34.4036 14.657 34.6586 14.402 34.8183 14.0884C35 13.7319 35 13.2652 35 12.3317V10.4709C35 9.70759 35 9.32595 34.8647 9.01102C34.7455 8.73323 34.5528 8.49313 34.3076 8.31641C34.0295 8.11607 33.6569 8.03328 32.9118 7.8677L20.5785 5.12696C20.3626 5.07898 20.2547 5.055 20.1456 5.04543C20.0487 5.03694 19.9513 5.03694 19.8544 5.04543C19.7453 5.055 19.6374 5.07898 19.4215 5.12696Z" stroke="#F9FB6C" stroke-linecap="round" stroke-linejoin="round"/>
</g>
</svg>
