<svg width="40" height="40" viewBox="0 0 40 40" fill="none" xmlns="http://www.w3.org/2000/svg">
<g id="file-02">
<path id="Icon" d="M23.3334 18.3334H13.3334M16.6667 25H13.3334M26.6667 11.6667H13.3334M33.3334 11.3334V28.6667C33.3334 31.467 33.3334 32.8671 32.7884 33.9367C32.3091 34.8775 31.5442 35.6424 30.6034 36.1217C29.5338 36.6667 28.1337 36.6667 25.3334 36.6667H14.6667C11.8665 36.6667 10.4664 36.6667 9.3968 36.1217C8.45599 35.6424 7.69108 34.8775 7.21172 33.9367C6.66675 32.8671 6.66675 31.467 6.66675 28.6667V11.3334C6.66675 8.53311 6.66675 7.13298 7.21172 6.06342C7.69108 5.12261 8.45599 4.35771 9.3968 3.87834C10.4664 3.33337 11.8665 3.33337 14.6667 3.33337H25.3334C28.1337 3.33337 29.5338 3.33337 30.6034 3.87834C31.5442 4.35771 32.3091 5.12261 32.7884 6.06342C33.3334 7.13298 33.3334 8.53311 33.3334 11.3334Z" stroke="#F9FB6C" stroke-linecap="round" stroke-linejoin="round"/>
</g>
</svg>
