<svg width="40" height="40" viewBox="0 0 40 40" fill="none" xmlns="http://www.w3.org/2000/svg">
<g id="line-chart-up-02">
<path id="Icon" d="M35 35H7.66667C6.73325 35 6.26654 35 5.91002 34.8183C5.59641 34.6586 5.34144 34.4036 5.18166 34.09C5 33.7335 5 33.2668 5 32.3333V5M35 11.6667L25.9428 20.7239C25.6128 21.0539 25.4478 21.2189 25.2575 21.2807C25.0901 21.3351 24.9099 21.3351 24.7425 21.2807C24.5522 21.2189 24.3872 21.0539 24.0572 20.7239L20.9428 17.6095C20.6128 17.2795 20.4478 17.1145 20.2575 17.0526C20.0901 16.9982 19.9099 16.9982 19.7425 17.0526C19.5522 17.1145 19.3872 17.2795 19.0572 17.6095L11.6667 25M35 11.6667H28.3333M35 11.6667V18.3333" stroke="#F9FB6C" stroke-linecap="round" stroke-linejoin="round"/>
</g>
</svg>
