<svg width="40" height="40" viewBox="0 0 40 40" fill="none" xmlns="http://www.w3.org/2000/svg">
<g id="passcode-lock">
<path id="Icon" d="M36.6663 18.332V13.6654C36.6663 11.7985 36.6663 10.8651 36.303 10.1521C35.9835 9.52486 35.4735 9.01492 34.8463 8.69534C34.1333 8.33203 33.1999 8.33203 31.333 8.33203H8.66634C6.7995 8.33203 5.86608 8.33203 5.15304 8.69534C4.52583 9.01492 4.0159 9.52486 3.69632 10.1521C3.33301 10.8651 3.33301 11.7985 3.33301 13.6654V19.6654C3.33301 21.5322 3.33301 22.4656 3.69632 23.1787C4.0159 23.8059 4.52583 24.3158 5.15304 24.6354C5.86608 24.9987 6.7995 24.9987 8.66634 24.9987H18.333M19.9997 16.6654H20.008M28.333 16.6654H28.3413M11.6663 16.6654H11.6747M32.083 28.332V25.4154C32.083 23.8045 30.7772 22.4987 29.1663 22.4987C27.5555 22.4987 26.2497 23.8045 26.2497 25.4154V28.332M20.4163 16.6654C20.4163 16.8955 20.2298 17.082 19.9997 17.082C19.7696 17.082 19.583 16.8955 19.583 16.6654C19.583 16.4352 19.7696 16.2487 19.9997 16.2487C20.2298 16.2487 20.4163 16.4352 20.4163 16.6654ZM28.7497 16.6654C28.7497 16.8955 28.5631 17.082 28.333 17.082C28.1029 17.082 27.9163 16.8955 27.9163 16.6654C27.9163 16.4352 28.1029 16.2487 28.333 16.2487C28.5631 16.2487 28.7497 16.4352 28.7497 16.6654ZM12.083 16.6654C12.083 16.8955 11.8965 17.082 11.6663 17.082C11.4362 17.082 11.2497 16.8955 11.2497 16.6654C11.2497 16.4352 11.4362 16.2487 11.6663 16.2487C11.8965 16.2487 12.083 16.4352 12.083 16.6654ZM25.9997 34.9987H32.333C33.2664 34.9987 33.7331 34.9987 34.0897 34.817C34.4033 34.6573 34.6582 34.4023 34.818 34.0887C34.9997 33.7322 34.9997 33.2655 34.9997 32.332V30.9987C34.9997 30.0653 34.9997 29.5986 34.818 29.242C34.6582 28.9284 34.4033 28.6735 34.0897 28.5137C33.7331 28.332 33.2664 28.332 32.333 28.332H25.9997C25.0663 28.332 24.5995 28.332 24.243 28.5137C23.9294 28.6735 23.6745 28.9284 23.5147 29.242C23.333 29.5986 23.333 30.0653 23.333 30.9987V32.332C23.333 33.2655 23.333 33.7322 23.5147 34.0887C23.6745 34.4023 23.9294 34.6573 24.243 34.817C24.5995 34.9987 25.0663 34.9987 25.9997 34.9987Z" stroke="#F9FB6C" stroke-linecap="round" stroke-linejoin="round"/>
</g>
</svg>
