<svg width="40" height="40" viewBox="0 0 40 40" fill="none" xmlns="http://www.w3.org/2000/svg">
<g id="pencil-line">
<path id="Icon" d="M34.9999 35H21.6665M4.1665 35.8333L13.4153 32.2761C14.0069 32.0486 14.3026 31.9348 14.5794 31.7863C14.8252 31.6543 15.0595 31.502 15.2799 31.331C15.528 31.1384 15.7521 30.9144 16.2003 30.4662L34.9999 11.6666C36.8408 9.8257 36.8408 6.84093 34.9999 4.99997C33.1589 3.15903 30.1742 3.15902 28.3332 4.99997L9.53364 23.7995C9.08546 24.2477 8.86138 24.4718 8.66882 24.7199C8.49779 24.9403 8.34551 25.1746 8.21356 25.4204C8.06502 25.6972 7.95125 25.993 7.72372 26.5845L4.1665 35.8333ZM4.1665 35.8333L7.59671 26.9149C7.84217 26.2767 7.9649 25.9576 8.1754 25.8114C8.35937 25.6837 8.58701 25.6354 8.807 25.6774C9.05873 25.7255 9.30048 25.9672 9.78398 26.4507L13.5491 30.2159C14.0326 30.6994 14.2744 30.9411 14.3224 31.1929C14.3645 31.4129 14.3161 31.6405 14.1884 31.8245C14.0422 32.035 13.7232 32.1577 13.085 32.4032L4.1665 35.8333Z" stroke="#F9FB6C" stroke-linecap="round" stroke-linejoin="round"/>
</g>
</svg>
