<svg width="40" height="40" viewBox="0 0 40 40" fill="none" xmlns="http://www.w3.org/2000/svg">
<g id="rocket-02">
<path id="Icon" d="M19.9993 24.9991L14.9993 19.9991M19.9993 24.9991C22.3274 24.1137 24.5608 22.997 26.666 21.6658M19.9993 24.9991V33.3324C19.9993 33.3324 25.0493 32.4158 26.666 29.9991C28.466 27.2991 26.666 21.6658 26.666 21.6658M14.9993 19.9991C15.8863 17.6982 17.003 15.4925 18.3327 13.4158C20.2747 10.3108 22.9787 7.75419 26.1877 5.98926C29.3966 4.22433 33.0038 3.30973 36.666 3.33244C36.666 7.86578 35.366 15.8324 26.666 21.6658M14.9993 19.9991H6.66602C6.66602 19.9991 7.58268 14.9491 9.99935 13.3324C12.6993 11.5324 18.3327 13.3324 18.3327 13.3324M7.49935 27.4991C4.99935 29.5991 4.16602 35.8324 4.16602 35.8324C4.16602 35.8324 10.3993 34.9991 12.4993 32.4991C13.6827 31.0991 13.666 28.9491 12.3493 27.6491C11.7015 27.0308 10.8482 26.6735 9.95306 26.6458C9.05795 26.6181 8.18414 26.922 7.49935 27.4991Z" stroke="#F9FB6C" stroke-linecap="round" stroke-linejoin="round"/>
</g>
</svg>
