<svg width="101" height="32" viewBox="0 0 101 32" fill="none" xmlns="http://www.w3.org/2000/svg">
<g id="airbnb" clip-path="url(#clip0_6_211)">
<path id="Vector" d="M53.2302 8.04048C53.2302 9.19374 52.3152 10.1224 51.1795 10.1224C50.0438 10.1224 49.1294 9.19374 49.1294 8.04048C49.1294 6.88723 50.0126 5.9586 51.1795 5.9586C52.3473 5.9906 53.2302 6.91955 53.2302 8.04048ZM44.7764 12.2369V12.7495C44.7764 12.7495 43.7989 11.4676 41.7169 11.4676C38.2791 11.4676 35.5974 14.1264 35.5974 17.8099C35.5974 21.4617 38.2475 24.1522 41.7169 24.1522C43.8304 24.1522 44.7764 22.8389 44.7764 22.8389V23.3832C44.7764 23.6395 44.9661 23.8312 45.2182 23.8312H47.7728V11.787H45.2182C44.9661 11.7879 44.7764 12.0126 44.7764 12.2369ZM44.7764 19.9561C44.3037 20.661 43.3571 21.2697 42.2218 21.2697C40.2031 21.2697 38.6572 19.9884 38.6572 17.8099C38.6572 15.6317 40.2031 14.3504 42.2218 14.3504C43.3259 14.3504 44.3352 14.9911 44.7764 15.6637V19.9561ZM49.6657 11.7879H52.6936V23.8322H49.6657V11.7879ZM94.8987 11.4673C92.8167 11.4673 91.8386 12.7492 91.8386 12.7492V5.9906H88.8107V23.8322H91.3659C91.6183 23.8322 91.8071 23.6079 91.8071 23.3835V22.8392C91.8071 22.8392 92.7852 24.1525 94.8665 24.1525C98.3051 24.1525 100.986 21.4626 100.986 17.8108C100.986 14.1591 98.3051 11.4673 94.8987 11.4673ZM94.3939 21.2373C93.2264 21.2373 92.3119 20.6293 91.8386 19.9241V15.6317C92.3119 14.9911 93.3212 14.3184 94.3939 14.3184C96.4125 14.3184 97.9581 15.5997 97.9581 17.7779C97.9581 19.9561 96.4128 21.2373 94.3939 21.2373ZM87.2339 16.6893V23.8642H84.2053V17.0413C84.2053 15.0557 83.5744 14.2544 81.8722 14.2544C80.9577 14.2544 80.0111 14.7351 79.4108 15.44V23.8325H76.3835V11.7882H78.78C79.0324 11.7882 79.2218 12.0126 79.2218 12.2369V12.7495C80.105 11.8202 81.2719 11.4676 82.4388 11.4676C83.7638 11.4676 84.868 11.8526 85.7512 12.6212C86.8233 13.5181 87.2339 14.6711 87.2339 16.6893ZM69.0329 11.4673C66.9516 11.4673 65.9735 12.7492 65.9735 12.7492V5.9906H62.9455V23.8322H65.5002C65.7526 23.8322 65.9419 23.6079 65.9419 23.3835V22.8392C65.9419 22.8392 66.92 24.1525 69.0014 24.1525C72.4399 24.1525 75.1209 21.4626 75.1209 17.8108C75.1524 14.1588 72.4714 11.4673 69.0329 11.4673ZM68.5281 21.2373C67.3612 21.2373 66.4468 20.6293 65.9735 19.9241V15.6317C66.4468 14.9911 67.4561 14.3184 68.5281 14.3184C70.5473 14.3184 72.0926 15.5997 72.0926 17.7779C72.0926 19.9561 70.5473 21.2373 68.5281 21.2373ZM60.3272 11.4673C61.2417 11.4673 61.715 11.6279 61.715 11.6279V14.4784C61.715 14.4784 59.1916 13.6135 57.6147 15.4397V23.8638H54.5862V11.7879H57.1414C57.3939 11.7879 57.5826 12.0122 57.5826 12.2366V12.7492C58.1511 12.0762 59.3813 11.4673 60.3272 11.4673ZM28.8792 22.7429C28.7216 22.3586 28.5638 21.9423 28.4062 21.5897C28.1535 21.0133 27.9011 20.4684 27.6808 19.9561L27.6493 19.9241C25.4725 15.1191 23.1388 10.2507 20.6781 5.4463L20.5835 5.25365C20.3247 4.75525 20.0725 4.25336 19.8269 3.74809C19.5112 3.17114 19.1961 2.56315 18.6913 1.9862C17.682 0.704946 16.2309 0 14.6855 0C13.1081 0 11.6888 0.70495 10.6483 1.92189C10.175 2.49819 9.82775 3.10683 9.51264 3.68377C9.26646 4.18872 9.01424 4.69061 8.75605 5.18934L8.6612 5.38197C6.2323 10.1864 3.86674 15.0551 1.69025 19.8598L1.65843 19.9234C1.43785 20.4367 1.18513 20.981 0.932721 21.557C0.775164 21.9096 0.617607 22.294 0.46005 22.7103C0.0497721 23.8952 -0.0765946 25.0165 0.0815925 26.17C0.428533 28.5726 2.00536 30.5898 4.18217 31.4874C5.00241 31.84 5.85416 32 6.73711 32C6.98952 32 7.30464 31.968 7.55736 31.9357C8.59849 31.8077 9.67082 31.4557 10.712 30.8471C12.0052 30.1101 13.2354 29.0535 14.6231 27.5159C16.0109 29.0535 17.2726 30.1101 18.5343 30.8471C19.5758 31.4557 20.6478 31.8077 21.6886 31.9357C21.941 31.9683 22.2568 32 22.5092 32C23.3924 32 24.2754 31.84 25.0638 31.4874C27.2721 30.5898 28.8174 28.5406 29.1647 26.17C29.4152 25.0491 29.2892 23.9285 28.8792 22.7429ZM14.6537 24.4085C12.9502 22.2303 11.846 20.1804 11.4679 18.4512C11.3104 17.7142 11.2785 17.0736 11.3734 16.497C11.4361 15.9843 11.6258 15.5357 11.8782 15.1514C12.4775 14.2871 13.4869 13.7421 14.654 13.7421C15.8215 13.7421 16.8624 14.2548 17.4302 15.1514C17.6826 15.5357 17.8717 15.9846 17.9353 16.497C18.0295 17.0739 17.998 17.7462 17.8405 18.4512C17.4608 20.1484 16.3566 22.1986 14.6537 24.4085ZM27.2387 25.9141C27.0181 27.5796 25.914 29.0215 24.3687 29.6621C23.6118 29.9821 22.7912 30.0784 21.9716 29.9821C21.1832 29.8858 20.3941 29.6295 19.5745 29.1495C18.4389 28.5082 17.3035 27.5159 15.9785 26.042C18.0601 23.4478 19.3218 21.077 19.7951 18.9635C20.016 17.9702 20.0478 17.0736 19.9527 16.2403C19.8269 15.4397 19.5427 14.7027 19.1012 14.0621C18.1228 12.6202 16.4823 11.7879 14.6534 11.7879C12.8245 11.7879 11.184 12.6529 10.2062 14.0621C9.76472 14.7027 9.48049 15.4397 9.35444 16.2403C9.2284 17.0736 9.25959 18.0022 9.512 18.9635C9.98499 21.077 11.2782 23.4795 13.3284 26.074C12.0351 27.5476 10.8679 28.5409 9.73227 29.1815C8.91203 29.6621 8.12393 29.9184 7.33552 30.0141C6.48408 30.1104 5.66352 29.9821 4.93813 29.6941C3.39281 29.0535 2.28865 27.6116 2.06807 25.946C1.97354 25.1454 2.03625 24.3448 2.35199 23.4479C2.44621 23.1272 2.6044 22.8072 2.76195 22.4229C2.98285 21.9103 3.23462 21.3653 3.48735 20.821L3.51918 20.7573C5.69535 15.9843 8.0294 11.1156 10.4583 6.37523L10.5528 6.1826C10.8055 5.70261 11.058 5.18998 11.31 4.70935C11.5625 4.19672 11.846 3.71609 12.1933 3.29946C12.8557 2.53147 13.7386 2.11452 14.7167 2.11452C15.6948 2.11452 16.5778 2.53147 17.2402 3.29946C17.5874 3.71705 17.871 4.19768 18.1234 4.70935C18.3762 5.18998 18.6286 5.70261 18.8803 6.1826L18.9752 6.37523C21.367 11.1353 23.6701 15.9409 25.8831 20.7893V20.8214C26.1358 21.3346 26.3564 21.9106 26.6088 22.4239C26.7664 22.8075 26.9242 23.1275 27.0188 23.4482C27.2705 24.2802 27.3651 25.0814 27.2387 25.9141Z" fill="#6A6B6B"/>
</g>
<defs>
<clipPath id="clip0_6_211">
<rect width="101" height="32" fill="white"/>
</clipPath>
</defs>
</svg>
