<svg width="51" height="30" viewBox="0 0 51 30" fill="none" xmlns="http://www.w3.org/2000/svg">
<g id="aws" clip-path="url(#clip0_6_230)">
<path id="Vector" d="M14.5378 10.8954C14.5378 11.5128 14.6043 12.0134 14.7207 12.3804C14.8536 12.7475 15.0199 13.1479 15.2526 13.5818C15.3357 13.7152 15.3689 13.8487 15.3689 13.9655C15.3689 14.1324 15.2692 14.2992 15.0531 14.4661L14.0059 15.1669C13.8563 15.267 13.7067 15.317 13.5738 15.317C13.4075 15.317 13.2413 15.2336 13.0751 15.0834C12.8424 14.8332 12.6429 14.5662 12.4767 14.2992C12.3105 14.0156 12.1443 13.6986 11.9614 13.3148C10.6649 14.8498 9.03601 15.6174 7.07464 15.6174C5.67841 15.6174 4.56475 15.2169 3.75028 14.416C2.93581 13.6151 2.52026 12.5473 2.52026 11.2125C2.52026 9.79422 3.01892 8.64294 4.03285 7.77531C5.04678 6.90768 6.39314 6.47386 8.10519 6.47386C8.67033 6.47386 9.25209 6.52392 9.8671 6.60734C10.4821 6.69077 11.1137 6.82425 11.7786 6.97442V5.7564C11.7786 4.48832 11.5127 3.60401 10.9974 3.08676C10.4655 2.56952 9.56791 2.31924 8.28803 2.31924C7.70627 2.31924 7.10788 2.38598 6.49287 2.53615C5.87787 2.68632 5.27948 2.86986 4.69772 3.10345C4.43177 3.22025 4.23231 3.28699 4.11596 3.32036C3.9996 3.35373 3.9165 3.37041 3.85001 3.37041C3.6173 3.37041 3.50095 3.20356 3.50095 2.85317V2.0356C3.50095 1.76863 3.53419 1.56841 3.6173 1.45161C3.70041 1.33482 3.85001 1.21802 4.08271 1.10122C4.66448 0.80089 5.36259 0.550612 6.17706 0.350389C6.99153 0.133482 7.85586 0.0333704 8.77006 0.0333704C10.7481 0.0333704 12.1942 0.483871 13.125 1.38487C14.0392 2.28587 14.5046 3.65406 14.5046 5.48943V10.8954H14.5378ZM7.78938 13.4316C8.33789 13.4316 8.90304 13.3315 9.50142 13.1313C10.0998 12.931 10.6317 12.564 11.0805 12.0634C11.3464 11.7464 11.5459 11.396 11.6456 10.9956C11.7454 10.5951 11.8119 10.1112 11.8119 9.54394V8.84316C11.3298 8.72636 10.8145 8.62625 10.2826 8.55951C9.75075 8.49277 9.23547 8.4594 8.7202 8.4594C7.60654 8.4594 6.79207 8.67631 6.24355 9.12681C5.69503 9.57731 5.42908 10.2113 5.42908 11.0456C5.42908 11.8298 5.62854 12.4138 6.04409 12.8142C6.44301 13.2314 7.02477 13.4316 7.78938 13.4316ZM21.1367 15.2336C20.8375 15.2336 20.638 15.1835 20.5051 15.0667C20.3721 14.9666 20.2557 14.733 20.156 14.416L16.2499 1.51835C16.1501 1.18465 16.1003 0.967742 16.1003 0.850946C16.1003 0.583982 16.2333 0.433815 16.4992 0.433815H18.1281C18.444 0.433815 18.66 0.483871 18.7764 0.600667C18.9094 0.700779 19.0091 0.934372 19.1088 1.25139L21.9013 12.297L24.4943 1.25139C24.5774 0.917687 24.6771 0.700779 24.8101 0.600667C24.9431 0.500556 25.1758 0.433815 25.475 0.433815H26.8047C27.1205 0.433815 27.3366 0.483871 27.4696 0.600667C27.6026 0.700779 27.7189 0.934372 27.7854 1.25139L30.4116 12.4305L33.2872 1.25139C33.387 0.917687 33.5033 0.700779 33.6197 0.600667C33.7526 0.500556 33.9687 0.433815 34.2679 0.433815H35.8137C36.0797 0.433815 36.2293 0.567297 36.2293 0.850946C36.2293 0.934372 36.2127 1.0178 36.196 1.11791C36.1794 1.21802 36.1462 1.3515 36.0797 1.53504L32.0738 14.4327C31.9741 14.7664 31.8577 14.9833 31.7248 15.0834C31.5918 15.1835 31.3757 15.2503 31.0931 15.2503H29.6637C29.3479 15.2503 29.1318 15.2002 28.9988 15.0834C28.8658 14.9666 28.7495 14.7497 28.683 14.416L26.1066 3.65406L23.5468 14.3993C23.4637 14.733 23.364 14.9499 23.231 15.0667C23.0981 15.1835 22.8654 15.2336 22.5662 15.2336H21.1367ZM42.4957 15.6841C41.6314 15.6841 40.767 15.584 39.9359 15.3838C39.1049 15.1835 38.4566 14.9666 38.0244 14.7164C37.7585 14.5662 37.5756 14.3993 37.5092 14.2492C37.4427 14.099 37.4094 13.9321 37.4094 13.782V12.931C37.4094 12.5806 37.5424 12.4138 37.7917 12.4138C37.8915 12.4138 37.9912 12.4305 38.0909 12.4639C38.1907 12.4972 38.3403 12.564 38.5065 12.6307C39.0716 12.881 39.6866 13.0812 40.3349 13.2147C40.9997 13.3482 41.648 13.4149 42.3129 13.4149C43.36 13.4149 44.1745 13.2314 44.7396 12.8643C45.3048 12.4972 45.604 11.9633 45.604 11.2792C45.604 10.812 45.4544 10.4283 45.1552 10.1112C44.856 9.79422 44.2909 9.51057 43.4764 9.24361L41.0662 8.49277C39.8528 8.10901 38.9553 7.54171 38.4067 6.79088C37.8582 6.05673 37.5756 5.23916 37.5756 4.37152C37.5756 3.67075 37.7252 3.05339 38.0244 2.51947C38.3236 1.98554 38.7225 1.51835 39.2212 1.15128C39.7199 0.76752 40.285 0.483871 40.9499 0.283649C41.6147 0.083426 42.3129 0 43.0442 0C43.4099 0 43.7922 0.0166852 44.1579 0.0667408C44.5402 0.116796 44.8892 0.183537 45.2383 0.250278C45.5707 0.333704 45.8865 0.41713 46.1857 0.517241C46.4849 0.617353 46.7176 0.717464 46.8839 0.817575C47.1166 0.951057 47.2828 1.08454 47.3825 1.23471C47.4822 1.36819 47.5321 1.55172 47.5321 1.78532V2.56952C47.5321 2.91991 47.3991 3.10345 47.1498 3.10345C47.0168 3.10345 46.8007 3.03671 46.5182 2.90323C45.5707 2.46941 44.5069 2.2525 43.3268 2.2525C42.3793 2.2525 41.6314 2.40267 41.1161 2.71969C40.6008 3.03671 40.3349 3.52058 40.3349 4.20467C40.3349 4.67186 40.5011 5.0723 40.8335 5.38932C41.166 5.70634 41.781 6.02336 42.6619 6.30701L45.0222 7.05784C46.219 7.4416 47.0833 7.97553 47.5986 8.65962C48.1139 9.34372 48.3632 10.1279 48.3632 10.9956C48.3632 11.713 48.2136 12.3637 47.931 12.931C47.6318 13.4983 47.2329 13.9989 46.7176 14.3993C46.2024 14.8165 45.5874 15.1168 44.8726 15.3337C44.1246 15.5673 43.3434 15.6841 42.4957 15.6841Z" fill="#6A6B6B"/>
<g id="Group">
<path id="Vector_2" fill-rule="evenodd" clip-rule="evenodd" d="M45.6375 23.7927C40.1689 27.8472 32.2237 29.9996 25.3921 29.9996C15.818 29.9996 7.19125 26.4457 0.675507 20.5391C0.160231 20.0719 0.625641 19.4379 1.24065 19.8049C8.28829 23.9095 16.9815 26.3956 25.9739 26.3956C32.0408 26.3956 38.7062 25.1275 44.8396 22.5246C45.7538 22.1075 46.5351 23.1253 45.6375 23.7927Z" fill="#6A6B6B"/>
<path id="Vector_3" fill-rule="evenodd" clip-rule="evenodd" d="M47.9146 21.1905C47.2165 20.2895 43.2938 20.7567 41.5152 20.9736C40.9833 21.0403 40.9002 20.5732 41.3822 20.2228C44.5071 18.0203 49.6433 18.6544 50.2417 19.3885C50.8401 20.1393 50.0754 25.2951 47.15 27.7645C46.7012 28.1482 46.2691 27.948 46.4685 27.4475C47.1334 25.7956 48.6127 22.0748 47.9146 21.1905Z" fill="#6A6B6B"/>
</g>
</g>
<defs>
<clipPath id="clip0_6_230">
<rect width="51" height="30" fill="white"/>
</clipPath>
</defs>
</svg>
