<svg width="125" height="26" viewBox="0 0 125 26" fill="none" xmlns="http://www.w3.org/2000/svg">
<g id="binance" clip-path="url(#clip0_6_215)">
<g id="Group">
<path id="Vector" d="M7.64596 11.0047L12.5015 6.15121L17.359 11.0086L20.1827 8.18304L12.5015 0.5L4.82031 8.18107L7.64596 11.0047Z" fill="#6A6B6B"/>
<path id="Vector_2" d="M-0.000976562 13L2.82364 10.1754L5.64826 13L2.82364 15.8246L-0.000976562 13Z" fill="#6A6B6B"/>
<path id="Vector_3" d="M7.64601 14.9942L12.5015 19.8496L17.3591 14.9922L20.1847 17.8138L20.1827 17.8158L12.5015 25.4989L4.82036 17.8198L4.81641 17.8158L7.64601 14.9942Z" fill="#6A6B6B"/>
<path id="Vector_4" d="M19.3496 13L22.1742 10.1754L24.9988 13L22.1742 15.8246L19.3496 13Z" fill="#6A6B6B"/>
<path id="Vector_5" d="M15.3661 12.9999L12.5009 10.1328L10.3822 12.2515L10.1373 12.4944L9.63579 12.9959L9.63184 12.9999L9.63579 13.0058L12.5009 15.8689L15.3661 13.0019L15.368 12.9999H15.3661Z" fill="#6A6B6B"/>
<g id="Group_2">
<path id="Vector_6" d="M29.4053 6.55859H35.5502C37.0746 6.55859 38.2278 6.95351 39.0097 7.74333C39.3043 8.03509 39.5366 8.38366 39.6924 8.76789C39.8482 9.15213 39.9243 9.56401 39.9161 9.97854V10.0161C39.9214 10.3557 39.8741 10.694 39.7759 11.0191C39.6884 11.299 39.5614 11.565 39.3987 11.809C39.2471 12.039 39.0636 12.2465 38.8537 12.425C38.6487 12.6015 38.4241 12.7539 38.1843 12.8792C38.8758 13.12 39.4975 13.5268 39.995 14.0639C40.4347 14.5641 40.6546 15.2552 40.6546 16.1372V16.1747C40.6671 16.7256 40.5472 17.2713 40.3051 17.7662C40.0704 18.2222 39.7265 18.613 39.3039 18.9036C38.8262 19.2238 38.2943 19.4547 37.7341 19.5848C37.0686 19.7426 36.3863 19.8189 35.7023 19.8119H29.4053V6.55859ZM34.9342 11.9176C35.4658 11.9433 35.9949 11.8289 36.4684 11.5858C36.6531 11.478 36.8039 11.3206 36.9037 11.1314C37.0035 10.9423 37.0483 10.729 37.0332 10.5156V10.4781C37.0429 10.2816 37.003 10.0857 36.9171 9.90866C36.8311 9.73161 36.702 9.57908 36.5415 9.46516C36.2137 9.23216 35.7404 9.11566 35.1217 9.11566H32.2467V11.9176H34.9342ZM35.7102 17.2588C36.2398 17.2885 36.7671 17.1673 37.2306 16.9093C37.4112 16.7933 37.5574 16.6309 37.6539 16.4392C37.7505 16.2476 37.7938 16.0335 37.7795 15.8193V15.7818C37.7867 15.5782 37.7438 15.376 37.6546 15.1929C37.5654 15.0098 37.4327 14.8513 37.2681 14.7313C36.9285 14.4681 36.3796 14.3364 35.6213 14.3364H32.2467V17.2588H35.7102Z" fill="#6A6B6B"/>
<path id="Vector_7" d="M44.3154 6.55859H47.2319V19.8158H44.3154V6.55859Z" fill="#6A6B6B"/>
<path id="Vector_8" d="M51.6455 6.55859H54.3349L60.551 14.7175V6.55859H63.4299V19.8158H60.9478L54.5284 11.3884V19.8158H51.6455V6.55859Z" fill="#6A6B6B"/>
<path id="Vector_9" d="M72.26 6.46094H74.9455L80.6264 19.813H77.5816L76.3692 16.8393H70.7633L69.5509 19.813H66.5771L72.26 6.46094ZM75.3286 14.2644L73.5633 9.96382L71.8059 14.2644H75.3286Z" fill="#6A6B6B"/>
<path id="Vector_10" d="M83.7803 6.55859H86.4697L92.6818 14.7175V6.55859H95.5607V19.8158H93.0787L86.6592 11.3884V19.8158H83.7803V6.55859Z" fill="#6A6B6B"/>
<path id="Vector_11" d="M106.058 20.0479C105.128 20.0559 104.207 19.8759 103.348 19.5187C102.541 19.1851 101.808 18.6932 101.193 18.0719C100.578 17.4507 100.094 16.7126 99.7685 15.9013C99.4254 15.0527 99.2517 14.1451 99.2571 13.2297V13.1922C99.2418 11.3879 99.9361 9.64981 101.19 8.35253C101.807 7.71884 102.546 7.21645 103.362 6.87556C104.25 6.50782 105.203 6.32442 106.164 6.3365C106.733 6.33226 107.3 6.38318 107.858 6.48854C108.336 6.57891 108.803 6.71853 109.253 6.90517C109.66 7.07669 110.047 7.29256 110.408 7.54888C110.759 7.79887 111.089 8.07758 111.395 8.38215L109.541 10.5226C109.067 10.0855 108.535 9.71543 107.961 9.42275C107.397 9.15295 106.778 9.01777 106.152 9.02783C105.632 9.02228 105.116 9.12752 104.64 9.33655C104.163 9.54558 103.736 9.85362 103.388 10.2402C103.042 10.6258 102.772 11.0725 102.59 11.5573C102.4 12.0696 102.304 12.6122 102.308 13.1586V13.1961C102.306 13.7418 102.402 14.2835 102.59 14.7955C102.77 15.2821 103.037 15.7313 103.38 16.1205C103.726 16.5119 104.151 16.8244 104.628 17.037C105.105 17.2496 105.622 17.3572 106.144 17.3526C106.809 17.3736 107.469 17.2305 108.066 16.936C108.634 16.6265 109.159 16.2441 109.628 15.7986L111.484 17.6745C111.156 18.0302 110.802 18.3602 110.423 18.6618C110.052 18.9555 109.649 19.2065 109.221 19.4101C108.765 19.6246 108.285 19.7831 107.791 19.882C107.221 19.9964 106.64 20.052 106.058 20.0479Z" fill="#6A6B6B"/>
<path id="Vector_12" d="M114.925 6.55859H124.902V9.15318H117.794V11.8425H124.053V14.4371H117.804V17.2213H125.001V19.8158H114.931L114.925 6.55859Z" fill="#6A6B6B"/>
</g>
</g>
</g>
<defs>
<clipPath id="clip0_6_215">
<rect width="125" height="25" fill="white" transform="translate(0 0.5)"/>
</clipPath>
</defs>
</svg>
