<svg width="223" height="22" viewBox="0 0 223 22" fill="none" xmlns="http://www.w3.org/2000/svg">
<g id="g20">
<g id="g26">
<path id="path28" d="M56.5098 5.12104H60.0836L64.5997 14.824L68.8259 5.12104H72.2551L66.1937 17.8803C64.8896 20.5972 63.2956 22.0039 60.4218 22.0039C59.4319 22.0039 58.2001 21.9554 57.1135 21.446L58.6106 18.3897C59.2626 18.705 59.8907 18.8506 60.7843 18.8506C61.7742 18.8506 62.5229 18.3412 62.9094 17.6133L56.5098 5.12104Z" fill="white"/>
</g>
<g id="g30">
<path id="path32" d="M78.5087 18.2188V4.82892H72.4473V1.52967H87.8305V4.82892H81.769V18.2188H78.5087Z" fill="white"/>
</g>
<g id="g34">
<path id="path36" d="M99.2024 9.89863C99.2024 8.49165 98.6953 7.93374 97.4152 7.93374H93.0926C91.8125 7.93374 91.3057 8.49165 91.3057 9.72895V10.7718H99.2024V9.89863ZM93.0926 18.2188C89.9533 18.2188 88.0938 16.8844 88.0938 13.6099V9.72895C88.0938 6.45412 89.9533 5.11976 93.0926 5.11976H97.4152C100.579 5.11976 102.438 6.45412 102.438 9.72895V12.8097H91.3057V13.6099C91.3057 14.9439 91.9818 15.4048 93.0926 15.4048H102.173L101.762 18.2188H93.0926Z" fill="white"/>
</g>
<g id="g38">
<path id="path40" d="M109.61 18.2188C106.471 18.2188 104.611 16.8844 104.611 13.6099V9.72895C104.611 6.45412 106.471 5.11976 109.61 5.11976H114.971C117.096 5.11976 118.062 6.43002 118.377 7.23024L116.613 9.07398C116.323 8.46755 115.889 7.93374 114.802 7.93374H109.61C108.499 7.93374 107.823 8.49165 107.823 9.72895V13.6099C107.823 14.8469 108.499 15.4048 109.61 15.4048H114.923C116.01 15.4048 116.468 14.8713 116.734 14.2893L118.521 16.1086C118.183 16.9088 117.242 18.2188 115.092 18.2188H109.61Z" fill="white"/>
</g>
<g id="g42">
<path id="path44" d="M131.099 18.2188V9.94716C131.099 8.61313 130.664 7.93374 129.312 7.93374H125.11C124.168 7.93374 123.733 8.32164 123.492 9.19514V18.2188H120.28V1.09324L123.492 0.00152397V7.01203C124.192 5.62947 125.086 5.11976 126.607 5.11976H129.312C133.104 5.11976 134.335 6.81792 134.335 10.3595V18.2188H131.099Z" fill="white"/>
</g>
<g id="g46">
<path id="path48" d="M147.422 18.2188V9.94716C147.422 8.61313 146.987 7.93374 145.635 7.93374H141.433C140.492 7.93374 140.057 8.32164 139.815 9.19514V18.2188H136.604V5.11976H139.695V7.01203C140.395 5.62947 141.264 5.11976 142.786 5.11976H145.635C149.427 5.11976 150.658 6.81792 150.658 10.3595V18.2188H147.422Z" fill="white"/>
</g>
<g id="g50">
<path id="path52" d="M164.012 9.72895C164.012 8.39459 163.457 7.93374 162.225 7.93374H157.902C156.695 7.93374 156.115 8.39459 156.115 9.72895V13.6099C156.115 14.9442 156.695 15.4051 157.902 15.4051H162.225C163.457 15.4051 164.012 14.9442 164.012 13.6099V9.72895ZM157.902 18.2188C154.4 18.2188 152.903 16.8603 152.903 13.6099V9.72895C152.903 6.47855 154.4 5.12009 157.902 5.12009H162.225C165.751 5.12009 167.248 6.47855 167.248 9.72895V13.6099C167.248 16.8603 165.751 18.2188 162.225 18.2188H157.902Z" fill="white"/>
</g>
<g id="g54">
<path id="path56" d="M169.517 18.2188V1.09324L172.728 0.00152397V18.2188H169.517Z" fill="white"/>
</g>
<g id="g58">
<path id="path60" d="M186.131 9.72895C186.131 8.39459 185.576 7.93374 184.344 7.93374H180.021C178.814 7.93374 178.234 8.39459 178.234 9.72895V13.6099C178.234 14.9442 178.814 15.4051 180.021 15.4051H184.344C185.576 15.4051 186.131 14.9442 186.131 13.6099V9.72895ZM180.021 18.2188C176.52 18.2188 175.022 16.8603 175.022 13.6099V9.72895C175.022 6.47855 176.52 5.12009 180.021 5.12009H184.344C187.87 5.12009 189.367 6.47855 189.367 9.72895V13.6099C189.367 16.8603 187.87 18.2188 184.344 18.2188H180.021Z" fill="white"/>
</g>
<g id="g62">
<path id="path64" d="M202.501 9.19641C202.236 8.29881 201.729 7.95911 200.69 7.95911H196.609C195.088 7.95911 194.605 8.49292 194.605 10.5549V11.4281C194.605 13.6838 195.136 14.0235 196.585 14.0235H200.473C201.68 14.0235 202.236 13.7808 202.501 12.7862V9.19641ZM202.501 14.6544C201.656 16.3037 200.738 16.5948 198.638 16.5948H196.391C192.624 16.5948 191.393 15.0664 191.393 11.6222V10.3608C191.393 6.81919 192.624 5.12104 196.391 5.12104H199.193C200.232 5.12104 202.018 5.43663 202.622 7.0374V5.12104H205.737V16.061C205.737 19.2388 204.723 22.0039 199.555 22.0039C198.396 22.0039 197.212 21.8342 196.126 21.4704L196.512 18.8991C197.551 19.2147 198.372 19.3358 199.435 19.3358C201.825 19.3358 202.501 18.0744 202.501 16.061V14.6544Z" fill="white"/>
</g>
<g id="g66">
<path id="path68" d="M206.848 5.12104H210.421L214.938 14.824L219.163 5.12104H222.593L216.531 17.8803C215.227 20.5972 213.634 22.0039 210.76 22.0039C209.77 22.0039 208.538 21.9554 207.451 21.446L208.948 18.3897C209.601 18.705 210.229 18.8506 211.122 18.8506C212.112 18.8506 212.861 18.3412 213.247 17.6133L206.848 5.12104Z" fill="white"/>
</g>
<g id="g70">
<path id="path72" d="M17.7609 6.78811L16.1251 11.8796H7.48067L6.97615 13.4514L5.34681 18.543H0L1.62934 13.4514L2.13354 11.8796L2.902 9.48809C3.41917 7.87885 4.91038 6.78811 6.59386 6.78811H17.7609Z" fill="#F8FB60"/>
</g>
<g id="g74">
<path id="path76" d="M34.0607 0.125116L29.8899 13.1381C28.8575 16.3592 25.8735 18.543 22.5046 18.543H7.1123L8.74164 13.4514H21.6139C23.298 13.4514 24.7899 12.3597 25.3064 10.7498L28.7136 0.125116H34.0607Z" fill="#F8FB60"/>
</g>
<g id="g78">
<path id="path80" d="M26.9546 0.127955L25.3188 5.21949L24.8207 6.79095L24.0526 9.18283C23.5357 10.7921 22.0442 11.8828 20.3607 11.8828H17.8896L19.519 6.79095L20.0235 5.21949L21.6528 0.127955H26.9546Z" fill="#F8FB60"/>
</g>
<g id="g82">
<path id="path84" d="M19.8949 0.123309L18.2591 5.21484H4.26758L5.03604 2.82329C5.55321 1.21405 7.04442 0.123309 8.7279 0.123309H19.8949Z" fill="#F8FB60"/>
</g>
<path id="path16" d="M43.6158 11.5724V18.2188H40.3555V1.52999H55.9559V4.82892H43.6158V8.66133H55.6903V11.5724H43.6158Z" fill="white"/>
</g>
</svg>
