<svg width="74" height="18" viewBox="0 0 74 18" fill="none" xmlns="http://www.w3.org/2000/svg">
<g id="oppo" clip-path="url(#clip0_6_240)">
<path id="path1460" d="M18.8149 9.31518V0.630399H20.1384H21.462V1.20448C21.462 1.52022 21.4667 1.77856 21.4725 1.77856C21.4782 1.77856 21.6453 1.67449 21.8438 1.54731C24.1849 0.0469223 27.5881 -0.404878 30.6405 0.379483C33.3905 1.08613 35.384 2.7636 36.0927 4.96725C36.5069 6.25498 36.484 7.68705 36.0295 8.93246C35.4641 10.4817 34.3017 11.7272 32.6252 12.5805C31.1581 13.3272 29.483 13.7011 27.605 13.7011C26.0481 13.7011 24.5961 13.4355 23.3178 12.9169C22.8106 12.7111 22.1605 12.3733 21.7662 12.1106L21.462 11.908V14.954V18H20.1384H18.8149V9.31518ZM28.8854 11.3922C30.3743 11.1761 31.5295 10.6928 32.3957 9.92353C33.0513 9.3412 33.5079 8.53243 33.6809 7.64709C33.7517 7.285 33.7519 6.42987 33.6817 6.06884C33.478 5.02692 32.8945 4.11676 32.0209 3.4785C31.6688 3.22122 30.9536 2.8547 30.497 2.69757C29.2078 2.25385 27.6447 2.12244 26.2131 2.33744C23.7274 2.71072 22.0473 3.97208 21.5966 5.80347C21.3977 6.61148 21.4332 7.48377 21.696 8.24617C22.293 9.97791 24.0532 11.1303 26.5408 11.4179C27.0409 11.4757 28.414 11.4607 28.8858 11.3922H28.8854ZM37.6611 9.31518V0.630399H38.9846H40.3082V1.20448C40.3082 1.52022 40.314 1.77856 40.3209 1.77856C40.328 1.77856 40.4736 1.68523 40.6446 1.57116C41.0403 1.30723 41.8214 0.912477 42.3223 0.723326C44.4843 -0.0932082 47.1241 -0.224891 49.4343 0.368553C53.2001 1.33592 55.4177 3.98621 55.2084 7.2691C55.0485 9.77503 53.4189 11.8334 50.7383 12.9151C49.8639 13.268 48.9678 13.4905 47.8464 13.6333C47.2545 13.7086 45.6592 13.7085 45.0413 13.6331C43.2925 13.4196 41.7571 12.8883 40.5599 12.0823L40.3082 11.9128V14.9564V18H38.9846H37.6611V9.31518ZM47.7956 11.3795C49.8578 11.0644 51.311 10.2144 52.0745 8.87662C52.518 8.09962 52.6841 7.06593 52.5196 6.10622C52.1777 4.11137 50.4643 2.73101 47.8411 2.33707C46.1096 2.07706 44.1547 2.33605 42.8258 3.00151C41.4693 3.6808 40.6528 4.69508 40.3741 6.04734C40.301 6.40231 40.3012 7.31491 40.3749 7.66285C40.5723 8.59947 41.0184 9.37441 41.6955 9.95684C42.6278 10.7588 43.8412 11.2363 45.4157 11.4209C45.9365 11.482 47.278 11.4586 47.796 11.3795H47.7956ZM7.88122 13.6832C6.47707 13.5563 5.27858 13.2732 4.25943 12.8278C1.94138 11.8148 0.477278 10.105 0.0799428 7.94693C0.00405583 7.53475 -0.024893 6.60618 0.024317 6.16245C0.311245 3.57517 2.17399 1.52584 5.11903 0.557428C6.68625 0.0420828 8.61539 -0.126262 10.3469 0.101219C13.5193 0.517995 15.919 2.02316 16.9738 4.25778C17.8326 6.07727 17.7236 8.28741 16.6913 9.98649C16.2262 10.7519 15.4606 11.5418 14.6716 12.0701C13.4441 12.892 11.978 13.4034 10.1974 13.6306C9.84077 13.6761 8.21206 13.7131 7.88122 13.6832ZM9.75896 11.4207C11.1398 11.2707 12.3014 10.8674 13.1754 10.2344C13.8899 9.71696 14.4553 8.95432 14.709 8.16583C14.8575 7.7043 14.887 7.4876 14.887 6.85694C14.887 6.22814 14.858 6.01324 14.7106 5.55139C14.2263 4.03337 12.8097 2.9042 10.8304 2.45843C9.09507 2.06759 7.07128 2.20344 5.57181 2.8114C4.49005 3.25001 3.63618 3.96002 3.13545 4.83727C2.60299 5.7701 2.48219 7.04067 2.82186 8.13562C3.18784 9.31537 4.15195 10.3027 5.47869 10.8565C6.20134 11.1582 7.0961 11.3683 7.98193 11.4445C8.32181 11.4737 9.404 11.4592 9.75896 11.4207ZM64.3623 13.6842C64.3069 13.6777 64.1127 13.658 63.9307 13.6404C62.4694 13.4987 60.9333 13.0265 59.8071 12.373C58.2846 11.4895 57.2241 10.2337 56.7401 8.7411C56.4125 7.73095 56.3565 6.59573 56.5829 5.55133C56.9252 3.9721 57.8647 2.63108 59.3238 1.63927C61.2479 0.331331 64.0769 -0.249574 66.808 0.102514C69.0769 0.395032 70.9462 1.24412 72.247 2.57302C73.2375 3.58507 73.8071 4.77095 73.9717 6.16433C74.0145 6.52644 74.0078 7.25874 73.9582 7.64295C73.6012 10.4099 71.4576 12.5246 68.1747 13.3484C67.1793 13.5982 66.5545 13.6738 65.3837 13.6862C64.8773 13.6915 64.4177 13.6906 64.3623 13.6842ZM66.103 11.4344C67.8508 11.2699 69.2754 10.6806 70.1899 9.74365C70.8091 9.10928 71.1685 8.41095 71.3102 7.567C71.3685 7.21921 71.3677 6.49426 71.3085 6.13349C70.99 4.1915 69.3165 2.78385 66.8367 2.37196C66.2414 2.27307 65.8454 2.24085 65.2255 2.24085C62.4453 2.24085 60.2881 3.31342 59.4585 5.10828C59.2112 5.64327 59.0971 6.19537 59.0971 6.85694C59.0971 7.7299 59.2959 8.42223 59.7448 9.1121C60.5688 10.3785 62.1315 11.1876 64.1998 11.4187C64.6264 11.4663 65.6721 11.475 66.103 11.4344Z" fill="#6A6B6B"/>
</g>
<defs>
<clipPath id="clip0_6_240">
<rect width="74" height="18" fill="white"/>
</clipPath>
</defs>
</svg>
