<svg width="102" height="14" viewBox="0 0 102 14" fill="none" xmlns="http://www.w3.org/2000/svg">
<g id="oracle" clip-path="url(#clip0_6_213)">
<path id="Vector" d="M44.0376 8.90208H50.7745L47.2123 3.3177L40.6743 13.4144H37.6989L45.6511 1.28602C45.9968 0.79609 46.5731 0.5 47.2123 0.5C47.8304 0.5 48.4067 0.785806 48.742 1.26564L56.7256 13.4144H53.7503L52.3464 11.1583H45.5257L44.0378 8.90208H44.0376ZM74.9457 11.1581V0.622433H72.4207V12.1893C72.4207 12.5058 72.5464 12.8122 72.7873 13.0469C73.0283 13.2817 73.3531 13.4144 73.7093 13.4144H85.2239L86.7118 11.1583H74.9455L74.9457 11.1581ZM33.1725 9.26937C35.6244 9.26937 37.6151 7.33994 37.6151 4.95105C37.6151 2.56196 35.6244 0.622239 33.1725 0.622239H22.1263V13.4146H24.6504V2.87881H33.0051C34.1785 2.87881 35.1214 3.80802 35.1214 4.95143C35.1214 6.09466 34.1785 7.02367 33.0051 7.02367L25.8868 7.01358L33.424 13.4146H37.0912L32.0202 9.26976H33.1727L33.1725 9.26937ZM6.5887 13.4144C2.96456 13.4146 0.0234375 10.556 0.0234375 7.02367C0.0234375 3.49116 2.96456 0.622627 6.5887 0.622627H14.2193C17.8442 0.622627 20.7832 3.49116 20.7832 7.02367C20.7832 10.556 17.8442 13.4144 14.2191 13.4144H6.5887ZM14.0496 11.1583C16.3976 11.1583 18.2992 9.31031 18.2992 7.02348C18.2992 4.73684 16.3976 2.87881 14.0496 2.87881H6.75756C4.41043 2.87881 2.50776 4.73684 2.50776 7.02367C2.50776 9.31031 4.41043 11.1583 6.75736 11.1583H14.0494H14.0496ZM61.9958 13.4144C58.3708 13.4144 55.4265 10.556 55.4265 7.02367C55.4265 3.49116 58.3708 0.622627 61.9958 0.622627H71.0589L69.5814 2.87881H62.1634C59.8165 2.87881 57.9097 4.73684 57.9097 7.02367C57.9097 9.31031 59.8165 11.1583 62.1634 11.1583H71.2682L69.7803 13.4144H61.9958ZM92.8726 11.1583C90.9343 11.1583 89.2893 9.8924 88.7865 8.14652H99.5781L101.066 5.89034H88.7865C89.2893 4.15475 90.9343 2.87881 92.8726 2.87881H100.28L101.778 0.622239H92.7048C89.0796 0.622239 86.1355 3.49097 86.1355 7.02328C86.1355 10.5558 89.0796 13.4142 92.7048 13.4142H100.489L101.977 11.1583H92.8724H92.8726Z" fill="#6A6B6B"/>
</g>
<defs>
<clipPath id="clip0_6_213">
<rect width="102" height="13" fill="white" transform="translate(0 0.5)"/>
</clipPath>
</defs>
</svg>
