<svg width="54" height="24" viewBox="0 0 54 24" fill="none" xmlns="http://www.w3.org/2000/svg">
<g id="stripe" clip-path="url(#clip0_6_244)">
<path id="Vector" d="M3.79498 9.47191C3.79498 8.87589 4.27496 8.64655 5.07009 8.64655C6.21 8.64655 7.64997 8.99819 8.78998 9.62484V6.03291C7.54502 5.52856 6.31505 5.32985 5.07009 5.32985C2.025 5.32985 0 6.95005 0 9.65547C0 13.8738 5.69995 13.2014 5.69995 15.0203C5.69995 15.7233 5.10005 15.9526 4.25999 15.9526C3.01504 15.9526 1.42499 15.4329 0.164953 14.7298V18.3675C1.55999 18.9789 2.97 19.2387 4.25999 19.2387C7.37996 19.2387 9.52499 17.6645 9.52499 14.9285C9.51001 10.3738 3.79498 11.1838 3.79498 9.47191ZM13.935 2.27302L10.275 3.06775L10.26 15.3106C10.26 17.5728 11.925 19.2387 14.145 19.2387C15.375 19.2387 16.275 19.0094 16.77 18.7343V15.6316C16.2901 15.8303 13.92 16.5333 13.92 14.2712V8.84526H16.77V5.58971H13.92L13.935 2.27302ZM21.435 6.72071L21.195 5.58971H17.955V18.9635H21.705V9.89996C22.5899 8.72307 24.09 8.93704 24.555 9.10512V5.58971C24.075 5.40626 22.32 5.06999 21.435 6.72071ZM25.47 5.58971H29.235V18.9635H25.47V5.58971ZM25.47 4.42808L29.235 3.60273V0.5L25.47 1.3101V4.42808ZM37.065 5.32985C35.595 5.32985 34.65 6.03291 34.125 6.52211L33.9299 5.57445H30.63V23.396L34.38 22.586L34.395 18.2605C34.935 18.6579 35.73 19.2234 37.05 19.2234C39.735 19.2234 42.18 17.0224 42.18 12.1773C42.165 7.74478 39.69 5.32985 37.065 5.32985ZM36.165 15.8608C35.28 15.8608 34.7549 15.5399 34.395 15.1425L34.38 9.47191C34.77 9.02871 35.31 8.72307 36.165 8.72307C37.53 8.72307 38.475 10.282 38.475 12.2843C38.475 14.3324 37.545 15.8608 36.165 15.8608ZM54 12.3301C54 8.41732 52.14 5.32985 48.585 5.32985C45.0149 5.32985 42.8549 8.41743 42.8549 12.2996C42.8549 16.9001 45.405 19.2234 49.0649 19.2234C50.85 19.2234 52.2 18.8107 53.22 18.23V15.173C52.2001 15.6927 51.03 16.0137 49.545 16.0137C48.09 16.0137 46.8 15.494 46.635 13.6905H53.97C53.97 13.4917 54 12.6969 54 12.3301ZM46.59 10.8781C46.59 9.15101 47.625 8.43258 48.57 8.43258C49.485 8.43258 50.46 9.15101 50.46 10.8781H46.59Z" fill="#6A6B6B"/>
</g>
<defs>
<clipPath id="clip0_6_244">
<rect width="54" height="23" fill="white" transform="translate(0 0.5)"/>
</clipPath>
</defs>
</svg>
