<svg width="95" height="12" viewBox="0 0 95 12" fill="none" xmlns="http://www.w3.org/2000/svg">
<g id="tesla" clip-path="url(#clip0_6_235)">
<g id="TESLA">
<path id="Vector" d="M81.1608 4.76258V11.9938H83.5469V7.17298H92.2731V11.9938H94.6592V4.76258H81.1608ZM83.2742 2.41822H92.4776C93.7729 2.18708 94.6933 1.06443 94.966 0.0078125H80.7859C81.0585 1.06443 82.013 2.15406 83.2742 2.41822ZM73.9003 11.9938C75.0933 11.4985 75.741 10.64 76.0137 9.64942H65.2763V0.0408317H62.8562V11.9938H73.9003ZM44.9606 2.3852H53.4823C54.7776 2.02198 55.8343 1.06443 56.107 0.0408317H42.6086V7.10694H53.6527V9.58338H44.9947C43.6312 9.9466 42.4722 10.8381 41.8928 11.9938H56.0388V4.76258H44.9947L44.9606 2.3852ZM23.9631 2.41822H33.1665C34.4618 2.18708 35.4163 1.06443 35.6549 0.0078125H21.4407C21.7134 1.06443 22.6678 2.15406 23.9631 2.41822ZM23.9631 7.13996H33.1665C34.4618 6.90883 35.4163 5.78618 35.6549 4.72956H21.4407C21.7134 5.78618 22.6678 6.87581 23.9631 7.13996ZM23.9631 11.9938H33.1665C34.4618 11.7627 35.4163 10.64 35.6549 9.58338H21.4407C21.7134 10.64 22.6678 11.7627 23.9631 11.9938Z" fill="#6A6B6B"/>
<g id="Group">
<path id="Vector_2" d="M0 0.0408317C0.272695 1.09745 1.22713 2.15406 2.48834 2.41821H6.37424L6.57876 2.48425V11.9608H8.99892V2.48425L9.20344 2.41821H13.0893C14.3846 2.08802 15.305 1.09745 15.5777 0.0408317V0.0078125L0 0.0408317Z" fill="#6A6B6B"/>
</g>
</g>
</g>
<defs>
<clipPath id="clip0_6_235">
<rect width="95" height="12" fill="white"/>
</clipPath>
</defs>
</svg>
