<svg width="87" height="20" viewBox="0 0 87 20" fill="none" xmlns="http://www.w3.org/2000/svg">
<g id="verce" clip-path="url(#clip0_6_242)">
<path id="Vector" d="M43.4015 5.0033C40.0042 5.0033 37.5548 7.25302 37.5548 10.6276C37.5548 14.0022 40.312 16.2519 43.7093 16.2519C45.7618 16.2519 47.5712 15.427 48.6913 14.0366L46.3372 12.6555C45.7156 13.346 44.7709 13.7491 43.7093 13.7491C42.2352 13.7491 40.9828 12.968 40.5181 11.7181H49.1406C49.2083 11.3681 49.2483 11.0057 49.2483 10.6245C49.2483 7.25302 46.7988 5.0033 43.4015 5.0033ZM40.4904 9.53399C40.8751 8.28727 41.9275 7.50299 43.3984 7.50299C44.8725 7.50299 45.9249 8.28727 46.3064 9.53399H40.4904ZM76.5374 5.0033C73.1401 5.0033 70.6906 7.25302 70.6906 10.6276C70.6906 14.0022 73.4478 16.2519 76.8451 16.2519C78.8976 16.2519 80.707 15.427 81.8271 14.0366L79.4731 12.6555C78.8514 13.346 77.9067 13.7491 76.8451 13.7491C75.3711 13.7491 74.1186 12.968 73.654 11.7181H82.2764C82.3441 11.3681 82.3841 11.0057 82.3841 10.6245C82.3841 7.25302 79.9346 5.0033 76.5374 5.0033ZM73.6293 9.53399C74.014 8.28727 75.0664 7.50299 76.5374 7.50299C78.0114 7.50299 79.0638 8.28727 79.4454 9.53399H73.6293ZM61.6188 10.6276C61.6188 12.5024 62.8251 13.7522 64.6961 13.7522C65.9639 13.7522 66.9148 13.1679 67.4041 12.2149L69.7674 13.5991C68.7888 15.2552 66.9548 16.2519 64.6961 16.2519C61.2957 16.2519 58.8493 14.0022 58.8493 10.6276C58.8493 7.25302 61.2988 5.0033 64.6961 5.0033C66.9548 5.0033 68.7858 6.00005 69.7674 7.6561L67.4041 9.04031C66.9148 8.0873 65.9639 7.50299 64.6961 7.50299C62.8282 7.50299 61.6188 8.75284 61.6188 10.6276ZM87 1.56622V15.9395H84.2305V1.56622H87ZM11.3704 0.00390625L22.7409 20.0015H0L11.3704 0.00390625ZM39.7981 1.56622L31.271 16.5644L22.744 1.56622H25.9412L31.271 10.9401L36.6008 1.56622H39.7981ZM57.9261 5.31576V8.34351C57.6184 8.2529 57.2922 8.19041 56.9414 8.19041C55.1535 8.19041 53.8642 9.44026 53.8642 11.315V15.9395H51.0947V5.31576H53.8642V8.19041C53.8642 6.6031 55.6828 5.31576 57.9261 5.31576Z" fill="#6A6B6B"/>
</g>
<defs>
<clipPath id="clip0_6_242">
<rect width="87" height="20" fill="white"/>
</clipPath>
</defs>
</svg>
