<svg width="24" height="24" viewBox="0 0 24 24" fill="none" xmlns="http://www.w3.org/2000/svg">
<g id="Graphic" clip-path="url(#clip0_6_6355)">
<path id="Vector" d="M12.8716 0H11.1309V6H12.8716V0Z" fill="#F9FB6C"/>
<path id="Vector_2" d="M6.7546 1.1726L5.24707 2.04297L8.24707 7.23912L9.7546 6.36875L6.7546 1.1726Z" fill="#F9FB6C"/>
<path id="Vector_3" d="M2.04225 5.24638L1.17188 6.75391L6.36803 9.75391L7.2384 8.24638L2.04225 5.24638Z" fill="#F9FB6C"/>
<path id="Vector_4" d="M6 11.1289H0V12.8696H6V11.1289Z" fill="#F9FB6C"/>
<path id="Vector_5" d="M6.36998 14.2461L1.17383 17.2461L2.0442 18.7536L7.24035 15.7536L6.36998 14.2461Z" fill="#F9FB6C"/>
<path id="Vector_6" d="M8.24609 16.7648L5.24609 21.9609L6.75362 22.8313L9.75362 17.6352L8.24609 16.7648Z" fill="#F9FB6C"/>
<path id="Vector_7" d="M12.8716 18H11.1309V24H12.8716V18Z" fill="#F9FB6C"/>
<path id="Vector_8" d="M15.7536 16.7624L14.2461 17.6328L17.2461 22.829L18.7536 21.9586L15.7536 16.7624Z" fill="#F9FB6C"/>
<path id="Vector_9" d="M17.6311 14.2464L16.7607 15.7539L21.9569 18.7539L22.8273 17.2464L17.6311 14.2464Z" fill="#F9FB6C"/>
<path id="Vector_10" d="M24 11.1289H18V12.8696H24V11.1289Z" fill="#F9FB6C"/>
<path id="Vector_11" d="M21.9569 5.24609L16.7607 8.24609L17.6311 9.75362L22.8273 6.75362L21.9569 5.24609Z" fill="#F9FB6C"/>
<path id="Vector_12" d="M17.2461 1.17104L14.2461 6.36719L15.7536 7.23756L18.7536 2.04141L17.2461 1.17104Z" fill="#F9FB6C"/>
</g>
<defs>
<clipPath id="clip0_6_6355">
<rect width="24" height="24" fill="white"/>
</clipPath>
</defs>
</svg>
