<svg width="166" height="91" viewBox="0 0 166 91" fill="none" xmlns="http://www.w3.org/2000/svg">
<g id="Group 1261152757">
<g id="g70">
<path id="path72" d="M86.6952 33.242L78.7494 57.9736H36.7603L34.3096 65.6083L26.3953 90.3398H0.423828L8.33813 65.6083L10.7872 57.9736L14.5199 46.3569C17.032 38.5402 24.2754 33.242 32.4527 33.242H86.6952Z" fill="#213040"/>
</g>
<g id="g74">
<path id="path76" d="M165.877 0.877335L145.618 64.0864C140.603 79.7325 126.109 90.3398 109.745 90.3398H34.9785L42.8928 65.6083H105.418C113.599 65.6083 120.845 60.3054 123.354 52.4856L139.904 0.877335H165.877Z" fill="#213040"/>
</g>
<g id="g78">
<path id="path80" d="M131.358 0.898285L123.412 25.6298L120.993 33.263L117.262 44.8813C114.751 52.698 107.506 57.9961 99.3291 57.9961H87.3262L95.2405 33.263L97.6912 25.6298L105.605 0.898285H131.358Z" fill="#213040"/>
</g>
<g id="g82">
<path id="path84" d="M97.0642 0.873949L89.1184 25.6055H21.1562L24.889 13.9888C27.4011 6.17209 34.6444 0.873949 42.8217 0.873949H97.0642Z" fill="#213040"/>
</g>
</g>
</svg>
