<svg width="372" height="46" viewBox="0 0 372 46" fill="none" xmlns="http://www.w3.org/2000/svg">
<path d="M33.5693 11.2947H40.8365L50.0197 31.0252L58.6135 11.2947H65.5866L53.261 37.24C50.6092 42.7646 47.3679 45.625 41.5242 45.625C39.5113 45.625 37.0064 45.5263 34.797 44.4905L37.8412 38.2758C39.1671 38.9168 40.4442 39.2129 42.2613 39.2129C44.2743 39.2129 45.7967 38.1771 46.5826 36.6969L33.5693 11.2947Z" fill="#213040"/>
<path d="M78.3021 37.9297V10.7023H65.9766V3.99347H97.2573V10.7023H84.9317V37.9297H78.3021Z" fill="#213040"/>
<path d="M120.382 21.0112C120.382 18.1502 119.351 17.0157 116.747 17.0157H107.958C105.355 17.0157 104.324 18.1502 104.324 20.6662V22.7868H120.382V21.0112ZM107.958 37.9297C101.574 37.9297 97.793 35.2164 97.793 28.5579V20.6662C97.793 14.007 101.574 11.2937 107.958 11.2937H116.747C123.181 11.2937 126.961 14.007 126.961 20.6662V26.9306H104.324V28.5579C104.324 31.2705 105.699 32.2076 107.958 32.2076H126.422L125.587 37.9297H107.958Z" fill="#213040"/>
<path d="M141.546 37.9297C135.161 37.9297 131.381 35.2164 131.381 28.5579V20.6662C131.381 14.007 135.161 11.2937 141.546 11.2937H152.447C156.769 11.2937 158.733 13.958 159.372 15.5852L155.786 19.3344C155.197 18.1012 154.313 17.0157 152.103 17.0157H141.546C139.286 17.0157 137.912 18.1502 137.912 20.6662V28.5579C137.912 31.0732 139.286 32.2076 141.546 32.2076H152.349C154.559 32.2076 155.491 31.1228 156.032 29.9394L159.666 33.6388C158.979 35.266 157.064 37.9297 152.693 37.9297H141.546Z" fill="#213040"/>
<path d="M185.245 37.9297V21.1099C185.245 18.3973 184.361 17.0158 181.611 17.0158H173.067C171.152 17.0158 170.268 17.8045 169.777 19.5807V37.9297H163.246V3.10602L169.777 0.886082V15.1415C171.201 12.3302 173.018 11.2937 176.112 11.2937H181.611C189.321 11.2937 191.826 14.7468 191.826 21.9484V37.9297H185.245Z" fill="#213040"/>
<path d="M218.435 37.9297V21.1099C218.435 18.3972 217.551 17.0157 214.801 17.0157H206.256C204.342 17.0157 203.457 17.8045 202.966 19.5807V37.9297H196.436V11.2937H202.721V15.1415C204.145 12.3302 205.913 11.2937 209.006 11.2937H214.801C222.511 11.2937 225.015 14.7468 225.015 21.9484V37.9297H218.435Z" fill="#213040"/>
<path d="M252.165 20.6662C252.165 17.9529 251.036 17.0157 248.531 17.0157H239.741C237.286 17.0157 236.108 17.9529 236.108 20.6662V28.5579C236.108 31.2712 237.286 32.2083 239.741 32.2083H248.531C251.036 32.2083 252.165 31.2712 252.165 28.5579V20.6662ZM239.741 37.9297C232.62 37.9297 229.576 35.1673 229.576 28.5579V20.6662C229.576 14.0567 232.62 11.2944 239.741 11.2944H248.531C255.7 11.2944 258.744 14.0567 258.744 20.6662V28.5579C258.744 35.1673 255.7 37.9297 248.531 37.9297H239.741Z" fill="#213040"/>
<path d="M263.359 37.9297V3.10602L269.89 0.886082V37.9297H263.359Z" fill="#213040"/>
<path d="M297.147 20.6662C297.147 17.9529 296.018 17.0157 293.513 17.0157H284.724C282.268 17.0157 281.09 17.9529 281.09 20.6662V28.5579C281.09 31.2712 282.268 32.2083 284.724 32.2083H293.513C296.018 32.2083 297.147 31.2712 297.147 28.5579V20.6662ZM284.724 37.9297C277.603 37.9297 274.559 35.1673 274.559 28.5579V20.6662C274.559 14.0567 277.603 11.2944 284.724 11.2944H293.513C300.683 11.2944 303.727 14.0567 303.727 20.6662V28.5579C303.727 35.1673 300.683 37.9297 293.513 37.9297H284.724Z" fill="#213040"/>
<path d="M330.433 19.5818C329.893 17.7565 328.861 17.0658 326.75 17.0658H318.451C315.358 17.0658 314.375 18.1512 314.375 22.3441V24.1197C314.375 28.7066 315.455 29.3973 318.402 29.3973H326.308C328.763 29.3973 329.893 28.9039 330.433 26.8813V19.5818ZM330.433 30.6801C328.714 34.0339 326.848 34.626 322.576 34.626H318.009C310.349 34.626 307.844 31.5179 307.844 24.5144V21.9494C307.844 14.7478 310.349 11.2947 318.009 11.2947H323.705C325.817 11.2947 329.451 11.9365 330.678 15.1915V11.2947H337.013V33.5405C337.013 40.0023 334.951 45.625 324.442 45.625C322.085 45.625 319.678 45.28 317.469 44.5402L318.255 39.3115C320.366 39.9533 322.036 40.1997 324.197 40.1997C329.058 40.1997 330.433 37.6347 330.433 33.5405V30.6801Z" fill="#213040"/>
<path d="M339.273 11.2947H346.541L355.724 31.0252L364.317 11.2947H371.291L358.964 37.24C356.313 42.7646 353.073 45.625 347.228 45.625C345.215 45.625 342.711 45.5263 340.501 44.4905L343.545 38.2758C344.871 38.9168 346.148 39.2129 347.965 39.2129C349.978 39.2129 351.501 38.1771 352.286 36.6969L339.273 11.2947Z" fill="#213040"/>
<path d="M7.3503 24.4108V37.9258H0.720703V3.99022H32.4432V10.6984H7.3503V18.4914H31.9032V24.4108H7.3503Z" fill="#213040"/>
</svg>
