<svg width="40" height="40" viewBox="0 0 40 40" fill="none" xmlns="http://www.w3.org/2000/svg">
<g id="image-plus">
<g id="Solid">
<path fill-rule="evenodd" clip-rule="evenodd" d="M9.16659 14.167C9.16659 11.4056 11.4052 9.16699 14.1666 9.16699C16.928 9.16699 19.1666 11.4056 19.1666 14.167C19.1666 16.9284 16.928 19.167 14.1666 19.167C11.4052 19.167 9.16659 16.9284 9.16659 14.167Z" fill="white" fill-opacity="0.2"/>
<path fill-rule="evenodd" clip-rule="evenodd" d="M20.8333 3.33366H12.9311C11.5895 3.33364 10.4822 3.33362 9.58021 3.40732C8.64338 3.48386 7.78221 3.64813 6.97332 4.06028C5.7189 4.69944 4.69903 5.71931 4.05988 6.97372C3.64773 7.78262 3.48345 8.64379 3.40691 9.58062C3.33322 10.4826 3.33323 11.5899 3.33325 12.9315V27.0692C3.33323 28.4108 3.33322 29.518 3.40691 30.42C3.48345 31.3569 3.64773 32.218 4.05988 33.0269C4.69903 34.2813 5.7189 35.3012 6.97332 35.9404C7.78221 36.3525 8.64338 36.5168 9.58021 36.5933C9.87252 36.6172 10.1864 36.6334 10.5228 36.6443C10.8717 36.6674 11.2889 36.6674 11.719 36.6673C17.2571 36.6673 22.7952 36.667 28.3333 36.667C28.4108 36.667 28.4872 36.667 28.5625 36.6671C29.8882 36.6678 30.8726 36.6683 31.7254 36.4398C34.026 35.8234 35.823 34.0264 36.4394 31.7258C36.7316 30.6354 36.667 29.4677 36.6666 28.3495C36.6695 28.034 36.6667 27.7183 36.6668 27.4028C36.6676 26.6213 36.6683 25.9327 36.4871 25.2748C36.328 24.6973 36.0665 24.1531 35.7149 23.6682C35.3144 23.1156 34.7762 22.686 34.1654 22.1985L29.447 18.4239C29.1639 18.1973 28.884 17.9733 28.6297 17.7998C28.347 17.6068 27.9991 17.4063 27.5636 17.2947C26.9514 17.1377 26.3071 17.1581 25.706 17.3533C25.2784 17.4922 24.9438 17.7142 24.6738 17.9246C24.431 18.1138 24.1657 18.355 23.8975 18.599L9.71736 31.49C9.36155 31.8134 9.0176 32.126 8.76476 32.3995C8.66337 32.5092 8.50937 32.6799 8.36541 32.9054C7.7937 32.5837 7.32863 32.0999 7.0299 31.5136C6.89708 31.253 6.78887 30.8793 6.72917 30.1486C6.66788 29.3984 6.66659 28.428 6.66659 27.0003V13.0003C6.66659 11.5727 6.66788 10.6022 6.72917 9.85206C6.78887 9.12137 6.89708 8.74769 7.0299 8.48703C7.34948 7.85982 7.85941 7.34988 8.48662 7.03031C8.74729 6.89749 9.12096 6.78928 9.85165 6.72958C10.6018 6.66829 11.5723 6.66699 12.9999 6.66699H20.8333C21.7537 6.66699 22.4999 5.9208 22.4999 5.00033C22.4999 4.07985 21.7537 3.33366 20.8333 3.33366Z" fill="white" fill-opacity="0.2"/>
<path d="M33.3333 3.33366C33.3333 2.41318 32.5871 1.66699 31.6666 1.66699C30.7461 1.66699 29.9999 2.41318 29.9999 3.33366V6.66699H26.6666C25.7461 6.66699 24.9999 7.41318 24.9999 8.33366C24.9999 9.25413 25.7461 10.0003 26.6666 10.0003H29.9999V13.3337C29.9999 14.2541 30.7461 15.0003 31.6666 15.0003C32.5871 15.0003 33.3333 14.2541 33.3333 13.3337V10.0003H36.6666C37.5871 10.0003 38.3333 9.25413 38.3333 8.33366C38.3333 7.41318 37.5871 6.66699 36.6666 6.66699H33.3333V3.33366Z" fill="white" fill-opacity="0.2"/>
</g>
</g>
</svg>
