<svg width="96" height="96" viewBox="0 0 96 96" fill="none" xmlns="http://www.w3.org/2000/svg">
<g clip-path="url(#clip0_637_26772)">
<g clip-path="url(#clip1_637_26772)">
<path d="M92.1992 -0.0234451H4.19922C1.99012 -0.0234451 0.199219 1.76746 0.199219 3.97655V91.9766C0.199219 94.1857 1.99012 95.9766 4.19922 95.9766L92.1992 95.9766C94.4083 95.9766 96.1992 94.1857 96.1992 91.9766L96.1992 3.97655C96.1992 1.76746 94.4084 -0.0234451 92.1992 -0.0234451Z" fill="url(#paint0_radial_637_26772)" fill-opacity="0.04"/>
</g>
<path d="M0.00140953 1.07171H91.053C93.2393 1.07171 95.0117 2.84415 95.0117 5.03048V96.082" stroke="url(#paint1_linear_637_26772)" stroke-opacity="0.2"/>
</g>
<defs>
<radialGradient id="paint0_radial_637_26772" cx="0" cy="0" r="1" gradientUnits="userSpaceOnUse" gradientTransform="translate(96.1992 -0.023438) rotate(135) scale(84.8528)">
<stop stop-color="white"/>
<stop offset="1" stop-color="white" stop-opacity="0"/>
</radialGradient>
<linearGradient id="paint1_linear_637_26772" x1="0.00140861" y1="1.07171" x2="95.0117" y2="96.082" gradientUnits="userSpaceOnUse">
<stop stop-color="white" stop-opacity="0"/>
<stop offset="0.5" stop-color="white"/>
<stop offset="1" stop-color="white" stop-opacity="0"/>
</linearGradient>
<clipPath id="clip0_637_26772">
<rect width="96" height="96" fill="white" transform="matrix(0 -1 -1 0 96 96.082)"/>
</clipPath>
<clipPath id="clip1_637_26772">
<rect width="96" height="96" fill="white" transform="matrix(0 -1 -1 0 96.1992 95.9766)"/>
</clipPath>
</defs>
</svg>
